<?xml version="1.0" standalone="no"?>
<!DOCTYPE svg PUBLIC "-//W3C//DTD SVG 20010904//EN"
 "http://www.w3.org/TR/2001/REC-SVG-20010904/DTD/svg10.dtd">
<svg version="1.0" xmlns="http://www.w3.org/2000/svg"
 width="260.000000pt" height="260.000000pt" viewBox="0 0 260.000000 260.000000"
 preserveAspectRatio="xMidYMid meet">
<metadata>
Created by potrace 1.14, written by Peter Selinger 2001-2017
</metadata>
<g transform="translate(0.000000,260.000000) scale(0.100000,-0.100000)"
fill="#000000" stroke="none">
<path d="M1166 2568 c3 -4 -4 -8 -15 -8 -12 0 -21 -3 -21 -7 0 -5 -10 -9 -22
-9 -29 -2 -67 -11 -93 -22 -133 -60 -221 -114 -288 -177 -36 -34 -67 -46 -67
-25 0 6 -4 10 -9 10 -15 0 -111 62 -111 71 0 5 -7 9 -15 9 -8 0 -15 5 -15 11
0 5 -4 8 -9 5 -5 -4 -11 -2 -13 3 -4 13 -58 22 -58 10 0 -6 -4 -8 -9 -5 -16
11 -53 -42 -53 -76 0 -42 64 -153 129 -223 25 -27 40 -51 34 -53 -6 -2 -11 -7
-11 -12 0 -5 -5 -21 -12 -37 -6 -15 -12 -34 -14 -41 -1 -8 -6 -21 -10 -30 -9
-22 -16 -61 -16 -89 0 -13 -4 -23 -10 -23 -5 0 -6 -9 -3 -21 l7 -20 -39 20
c-57 29 -158 61 -190 61 -41 -1 -66 -26 -109 -110 -20 -41 -46 -87 -56 -102
-11 -16 -16 -28 -12 -28 3 0 1 -7 -6 -15 -7 -8 -16 -13 -20 -10 -4 2 -7 -18
-7 -45 0 -36 4 -50 13 -50 8 0 14 -3 14 -7 0 -8 56 -43 67 -42 3 0 9 -3 12 -8
3 -4 25 -21 48 -36 48 -31 50 -36 25 -65 -9 -11 -24 -30 -32 -42 -8 -12 -21
-28 -28 -36 -6 -7 -12 -17 -12 -23 0 -6 -4 -11 -8 -11 -4 0 -15 -12 -24 -27
-9 -16 -30 -43 -47 -62 -39 -44 -42 -91 -7 -114 13 -9 29 -22 37 -29 8 -8 30
-25 49 -38 70 -49 72 -52 47 -82 -38 -46 -51 -62 -87 -108 -19 -25 -43 -51
-52 -58 -24 -18 -24 -78 0 -91 9 -6 13 -11 7 -11 -5 0 2 -8 15 -17 32 -22 47
-34 71 -56 10 -9 22 -17 25 -17 13 0 44 -44 36 -49 -4 -3 -24 -37 -42 -76 -19
-38 -41 -75 -47 -83 -7 -7 -16 -24 -19 -38 -3 -13 -11 -24 -17 -24 -6 0 -8 -3
-4 -6 3 -4 -5 -21 -18 -39 -33 -42 -32 -79 1 -108 15 -12 33 -28 40 -35 8 -7
14 -11 14 -7 0 3 10 -3 22 -15 12 -11 25 -20 30 -20 4 0 8 -7 8 -15 0 -13 11
-15 57 -13 53 3 57 5 74 38 10 19 20 44 21 55 2 11 7 26 11 33 5 6 5 17 2 22
-3 5 -2 10 2 10 5 0 14 20 20 43 11 41 83 127 107 127 5 0 18 8 29 17 18 17
19 17 32 0 6 -9 17 -17 23 -17 6 0 12 -5 14 -11 7 -20 85 -30 136 -17 61 15
140 58 192 105 14 13 28 23 32 23 3 0 19 13 35 28 34 34 70 55 83 47 5 -3 11
-2 14 3 3 5 28 8 55 7 28 -1 49 1 47 4 -7 11 279 7 286 -4 5 -6 8 -5 8 3 0 8
5 10 12 6 7 -5 33 -9 58 -10 25 -1 56 -2 70 -3 14 -1 39 -13 55 -29 17 -15 57
-47 90 -72 33 -25 63 -49 67 -55 4 -5 8 -6 8 -1 0 5 8 2 18 -7 29 -26 123 -55
169 -51 42 3 88 25 109 53 9 11 18 9 54 -15 72 -47 96 -81 131 -189 18 -55 39
-107 46 -116 7 -9 10 -19 6 -22 -3 -4 22 -7 56 -7 36 0 60 4 56 9 -3 5 8 18
25 27 16 10 30 22 30 26 0 4 7 8 15 8 7 0 18 6 22 13 4 8 16 16 26 20 13 5 17
18 17 58 0 36 -6 58 -17 71 -21 22 -74 115 -99 170 -9 21 -20 38 -25 38 -5 0
-9 9 -9 19 0 11 -6 21 -12 24 -14 4 56 73 85 83 9 3 17 9 17 13 0 3 14 15 30
24 28 17 30 23 30 73 0 30 -4 53 -8 50 -4 -2 -17 9 -27 25 -11 16 -23 29 -27
29 -5 0 -8 5 -8 11 0 7 -8 19 -17 28 -10 9 -32 34 -49 56 -26 33 -29 43 -18
53 7 6 18 12 24 12 6 0 8 5 5 10 -3 6 -2 10 3 10 5 0 35 19 66 42 54 40 56 43
56 86 0 27 -6 52 -15 61 -36 37 -75 85 -75 93 0 4 -13 22 -30 40 -16 17 -30
34 -30 39 0 4 -11 21 -25 37 l-24 29 39 22 c22 12 40 27 40 32 0 6 5 7 10 4 6
-3 10 -1 10 4 0 6 3 10 8 9 12 -3 62 24 62 34 0 4 7 8 15 8 11 0 15 12 15 50
0 46 -18 88 -60 138 -6 6 -8 12 -6 12 11 0 -68 136 -88 152 -27 23 -68 22
-136 -3 -30 -11 -59 -21 -65 -22 -5 -1 -16 -6 -22 -10 -7 -5 -13 -5 -13 -1 0
4 -6 0 -13 -11 -17 -22 -25 -11 -32 43 -3 23 -9 52 -15 66 -5 15 -7 26 -4 26
4 0 1 7 -6 15 -6 8 -9 19 -5 25 3 5 -1 13 -9 16 -9 3 -13 10 -11 15 3 5 -1 21
-9 37 -14 28 -14 30 35 83 27 30 49 60 49 67 0 6 4 12 9 12 5 0 20 24 34 53
33 68 39 87 26 87 -6 0 -8 4 -4 9 3 5 -2 17 -11 25 -8 9 -12 16 -7 17 14 1
-41 22 -62 23 -17 2 -68 -26 -85 -45 -12 -13 -125 -84 -138 -85 -7 -2 -30 13
-50 33 -45 42 -179 132 -209 139 -13 4 -23 10 -23 16 0 5 -4 7 -8 4 -5 -3 -20
1 -35 9 -14 7 -28 11 -31 7 -3 -3 -6 0 -6 6 0 6 -7 9 -15 6 -8 -4 -15 -2 -15
3 0 8 -16 12 -62 14 -10 0 -18 5 -18 11 0 6 -11 8 -25 6 -13 -3 -22 -1 -19 3
3 5 -54 8 -125 7 -71 -1 -128 -5 -125 -10z"/>
</g>
</svg>
